<?xml version="1.0" ?><svg fill="none" height="24" viewBox="0 0 24 24" width="24" xmlns="http://www.w3.org/2000/svg"><path clip-rule="evenodd" d="M2.00003 12C2.00003 6.47715 6.47718 2 12 2C17.5229 2 22 6.47715 22 12C22 17.5228 17.5229 22 12 22C10.2069 22 8.52163 21.5272 7.06485 20.6992L3.31625 21.9487C2.95692 22.0685 2.56075 21.9749 2.29292 21.7071C2.02509 21.4393 1.93157 21.0431 2.05134 20.6838L3.30088 16.9352C2.47283 15.4784 2.00003 13.7931 2.00003 12ZM6.20344 10.4478C6.46675 9.4614 6.98566 8.52909 7.75739 7.75736C8.52913 6.98563 9.46143 6.46672 10.4478 6.20341L10.9636 8.13574C10.3079 8.31077 9.68806 8.65513 9.17161 9.17157C8.65516 9.68802 8.31081 10.3079 8.13577 10.9636L6.20344 10.4478ZM7.75739 16.2426C6.98566 15.4709 6.46675 14.5386 6.20344 13.5523L8.13577 13.0364C8.31081 13.6921 8.65516 14.312 9.17161 14.8284C9.68806 15.3449 10.3079 15.6892 10.9636 15.8643L10.4478 17.7966C9.46143 17.5333 8.52913 17.0144 7.75739 16.2426ZM16.2427 16.2426C15.4709 17.0144 14.5386 17.5333 13.5523 17.7966L13.0364 15.8643C13.6921 15.6892 14.312 15.3449 14.8285 14.8284C15.3449 14.312 15.6893 13.6921 15.8643 13.0364L17.7966 13.5522C17.5333 14.5386 17.0144 15.4709 16.2427 16.2426ZM14 8V6.5H16V8H17.5V10H16V11.5H14V10H12.5V8H14Z" fill="black" fill-rule="evenodd"/></svg>